<svg width="245" height="489" viewBox="0 0 245 489" fill="none" xmlns="http://www.w3.org/2000/svg">
<path d="M244.135 116.276H241.455V42.7002C241.455 31.4058 236.98 20.5741 229.013 12.5878C221.046 4.60153 210.241 0.114874 198.975 0.114868H43.472C32.2054 0.114868 21.4002 4.60152 13.4336 12.5878C5.46686 20.5741 0.991211 31.4058 0.991211 42.7002V446.349C0.991215 457.643 5.46686 468.475 13.4336 476.461C21.4002 484.448 32.2054 488.934 43.472 488.934H198.975C210.241 488.934 221.046 484.447 229.013 476.461C236.979 468.475 241.455 457.643 241.455 446.349V168.648H244.134L244.135 116.276Z" fill="#F4F4F4"/>
<path d="M200.688 11.1899H180.392C181.325 13.4842 181.681 15.9735 181.429 18.4383C181.177 20.9032 180.324 23.268 178.945 25.3245C177.566 27.3809 175.704 29.0659 173.522 30.2309C171.341 31.3959 168.907 32.0052 166.435 32.0051H77.3498C74.8782 32.005 72.4446 31.3955 70.2633 30.2304C68.082 29.0653 66.22 27.3804 64.8413 25.3239C63.4626 23.2675 62.6096 20.9028 62.3574 18.438C62.1051 15.9733 62.4615 13.4841 63.3949 11.1899H44.4366C36.0228 11.1899 27.9537 14.5405 22.0042 20.5046C16.0548 26.4687 12.7124 34.5577 12.7124 42.9922V446.055C12.7124 454.489 16.0548 462.579 22.0042 468.543C27.9537 474.507 36.0228 477.857 44.4366 477.857H200.688C209.102 477.857 217.171 474.507 223.121 468.543C229.07 462.579 232.412 454.489 232.412 446.055V42.9916C232.412 34.5572 229.07 26.4683 223.12 20.5044C217.171 14.5404 209.102 11.1899 200.688 11.1899H200.688Z" fill="white"/>
<path d="M122.562 249.609C108.002 249.609 93.7701 245.281 81.6646 237.173C69.559 229.064 60.1238 217.539 54.5522 204.055C48.9806 190.571 47.5228 175.733 50.3632 161.418C53.2036 147.104 60.2145 133.955 70.5095 123.635C80.8044 113.314 93.921 106.286 108.201 103.439C122.48 100.591 137.281 102.053 150.732 107.638C164.183 113.223 175.68 122.682 183.769 134.817C191.857 146.953 196.175 161.22 196.175 175.815C196.153 195.38 188.39 214.137 174.59 227.971C160.789 241.805 142.078 249.587 122.562 249.609V249.609ZM122.562 103.427C108.28 103.427 94.3186 107.672 82.4435 115.626C70.5685 123.58 61.3131 134.886 55.8476 148.113C50.3822 161.34 48.9522 175.895 51.7384 189.937C54.5247 203.979 61.4021 216.878 71.501 227.001C81.5998 237.125 94.4666 244.019 108.474 246.813C122.482 249.606 137.001 248.172 150.196 242.693C163.39 237.214 174.668 227.936 182.603 216.032C190.537 204.128 194.773 190.132 194.773 175.815C194.751 156.623 187.136 138.223 173.599 124.653C160.061 111.082 141.707 103.448 122.562 103.427V103.427Z" fill="#3F3D56"/>
<path d="M149.599 154.378C155.903 149.038 159.733 140.602 158.729 132.389C157.724 124.176 151.504 116.626 143.436 114.882C135.367 113.138 126.17 117.966 123.719 125.867C122.371 110.634 120.816 94.763 112.738 81.7908C105.422 70.0448 92.7523 61.6401 79.0207 60.1365C65.2892 58.6329 50.8317 64.3118 42.2678 75.1766C33.704 86.0414 31.6071 101.837 37.605 114.31C42.0235 123.499 50.1638 130.338 58.6928 135.901C85.9034 153.651 119.658 159.648 151.776 154.909L149.599 154.378Z" fill="#CFDEF3"/>
<path d="M55.8464 64.6267C67.1766 73.878 77.5709 84.2249 86.8789 95.5177C101.446 113.13 113.234 132.877 121.832 154.071C122.461 155.617 119.957 156.29 119.334 154.761C105.266 120.317 82.8088 89.959 54.015 66.4626C52.722 65.4071 54.5641 63.58 55.8464 64.6267V64.6267Z" fill="white"/>
<path d="M59.7026 321.997C63.9617 321.997 67.4144 318.536 67.4144 314.267C67.4144 309.997 63.9617 306.536 59.7026 306.536C55.4434 306.536 51.9907 309.997 51.9907 314.267C51.9907 318.536 55.4434 321.997 59.7026 321.997Z" fill="#17275F"/>
<path d="M187.525 319.889H89.3747C87.8872 319.889 86.4606 319.297 85.4088 318.242C84.357 317.188 83.7661 315.758 83.7661 314.267C83.7661 312.776 84.357 311.345 85.4088 310.291C86.4606 309.237 87.8872 308.644 89.3747 308.644H187.525C189.013 308.644 190.439 309.237 191.491 310.291C192.543 311.345 193.134 312.776 193.134 314.267C193.134 315.758 192.543 317.188 191.491 318.242C190.439 319.297 189.013 319.889 187.525 319.889Z" fill="#DAE9FF"/>
<path d="M157.084 319.957H88.9697C87.4643 319.957 86.0205 319.358 84.956 318.29C83.8915 317.223 83.2935 315.776 83.2935 314.267C83.2935 312.758 83.8915 311.31 84.956 310.243C86.0205 309.176 87.4643 308.577 88.9697 308.577H157.084C158.59 308.577 160.034 309.176 161.098 310.243C162.163 311.31 162.761 312.758 162.761 314.267C162.761 315.776 162.163 317.223 161.098 318.29C160.034 319.358 158.59 319.957 157.084 319.957Z" fill="#5784F5"/>
<path d="M59.7026 355.732C63.9617 355.732 67.4144 352.271 67.4144 348.001C67.4144 343.731 63.9617 340.27 59.7026 340.27C55.4434 340.27 51.9907 343.731 51.9907 348.001C51.9907 352.271 55.4434 355.732 59.7026 355.732Z" fill="#17275F"/>
<path d="M187.525 353.623H89.3747C87.8872 353.623 86.4606 353.031 85.4088 351.977C84.357 350.922 83.7661 349.492 83.7661 348.001C83.7661 346.51 84.357 345.08 85.4088 344.025C86.4606 342.971 87.8872 342.379 89.3747 342.379H187.525C189.013 342.379 190.439 342.971 191.491 344.025C192.543 345.08 193.134 346.51 193.134 348.001C193.134 349.492 192.543 350.922 191.491 351.977C190.439 353.031 189.013 353.623 187.525 353.623Z" fill="#DAE9FF"/>
<path d="M59.7026 389.466C63.9617 389.466 67.4144 386.005 67.4144 381.736C67.4144 377.466 63.9617 374.005 59.7026 374.005C55.4434 374.005 51.9907 377.466 51.9907 381.736C51.9907 386.005 55.4434 389.466 59.7026 389.466Z" fill="#17275F"/>
<path d="M187.525 387.358H89.3747C87.8872 387.358 86.4606 386.766 85.4088 385.711C84.357 384.657 83.7661 383.227 83.7661 381.735C83.7661 380.244 84.357 378.814 85.4088 377.76C86.4606 376.705 87.8872 376.113 89.3747 376.113H187.525C189.013 376.113 190.439 376.705 191.491 377.76C192.543 378.814 193.134 380.244 193.134 381.735C193.134 383.227 192.543 384.657 191.491 385.711C190.439 386.766 189.013 387.358 187.525 387.358Z" fill="#DAE9FF"/>
<path d="M134.65 353.691H88.9697C87.4643 353.691 86.0205 353.092 84.956 352.025C83.8915 350.958 83.2935 349.51 83.2935 348.001C83.2935 346.492 83.8915 345.045 84.956 343.978C86.0205 342.911 87.4643 342.311 88.9697 342.311H134.65C136.155 342.311 137.599 342.911 138.664 343.978C139.728 345.045 140.326 346.492 140.326 348.001C140.326 349.51 139.728 350.958 138.664 352.025C137.599 353.092 136.155 353.691 134.65 353.691V353.691Z" fill="#5784F5"/>
<path d="M175.312 387.426H88.9697C87.4643 387.426 86.0205 386.826 84.956 385.759C83.8915 384.692 83.2935 383.245 83.2935 381.735C83.2935 380.226 83.8915 378.779 84.956 377.712C86.0205 376.645 87.4643 376.045 88.9697 376.045H175.312C176.818 376.045 178.262 376.645 179.326 377.712C180.391 378.779 180.989 380.226 180.989 381.735C180.989 383.245 180.391 384.692 179.326 385.759C178.262 386.826 176.818 387.426 175.312 387.426V387.426Z" fill="#5784F5"/>
<path d="M161.537 164.341H151.901V135.797C151.902 134.958 152.234 134.155 152.826 133.562C153.417 132.969 154.219 132.635 155.056 132.634H158.382C159.218 132.635 160.02 132.969 160.611 133.562C161.203 134.155 161.536 134.958 161.537 135.797V164.341Z" fill="#3F3D56"/>
<path d="M167.378 212.913H75.2712L74.9405 160.873C74.937 160.07 75.0946 159.273 75.404 158.531C75.7134 157.79 76.1682 157.118 76.7414 156.556L99.8795 133.964C100.977 132.888 102.448 132.281 103.983 132.269L142.709 131.915C143.587 131.909 144.455 132.097 145.253 132.465C146.051 132.833 146.758 133.372 147.325 134.044L147.328 134.048L165.722 156.661C166.792 157.979 167.377 159.625 167.378 161.324L167.378 212.913Z" fill="#161B3D"/>
<path d="M167.379 212.913H117.881V166.275C117.882 164.854 118.387 163.479 119.307 162.398L140.813 137.122V137.123C141.372 136.464 142.067 135.936 142.849 135.574C143.632 135.212 144.484 135.024 145.346 135.025H145.369C146.235 135.028 147.09 135.22 147.874 135.588C148.658 135.956 149.353 136.491 149.91 137.157L165.983 156.339C166.884 157.415 167.378 158.776 167.379 160.181V212.913Z" fill="#7398F6"/>
<path d="M146.382 195H139.221C138.756 194.999 138.311 194.814 137.982 194.485C137.654 194.155 137.469 193.709 137.468 193.243V187.224C137.469 186.758 137.654 186.311 137.982 185.982C138.311 185.653 138.756 185.467 139.221 185.467H146.382C146.847 185.467 147.292 185.653 147.621 185.982C147.95 186.311 148.134 186.758 148.135 187.224V193.243C148.134 193.709 147.95 194.155 147.621 194.485C147.292 194.814 146.847 194.999 146.382 195V195Z" fill="white"/>
<path d="M146.382 179.576H139.221C138.756 179.576 138.311 179.39 137.982 179.061C137.654 178.732 137.469 178.285 137.468 177.819V171.94C137.469 171.474 137.654 171.028 137.982 170.698C138.311 170.369 138.756 170.184 139.221 170.183H146.382C146.847 170.184 147.292 170.369 147.621 170.698C147.95 171.028 148.134 171.474 148.135 171.94V177.819C148.134 178.285 147.95 178.732 147.621 179.061C147.292 179.39 146.847 179.576 146.382 179.576V179.576Z" fill="white"/>
<path d="M102.095 192.657H94.9334C94.4687 192.656 94.0232 192.471 93.6946 192.142C93.366 191.812 93.1812 191.366 93.1807 190.9V184.881C93.1812 184.415 93.366 183.969 93.6946 183.639C94.0232 183.31 94.4687 183.125 94.9334 183.124H102.095C102.559 183.125 103.005 183.31 103.333 183.639C103.662 183.969 103.847 184.415 103.847 184.881V190.9C103.847 191.366 103.662 191.812 103.333 192.142C103.005 192.471 102.559 192.656 102.095 192.657Z" fill="white"/>
<path d="M102.095 177.233H94.9334C94.4687 177.232 94.0232 177.047 93.6946 176.718C93.366 176.388 93.1812 175.942 93.1807 175.476V169.597C93.1812 169.131 93.366 168.685 93.6946 168.355C94.0232 168.026 94.4687 167.841 94.9334 167.84H102.095C102.559 167.841 103.005 168.026 103.333 168.355C103.662 168.685 103.847 169.131 103.847 169.597V175.476C103.847 175.942 103.662 176.388 103.333 176.718C103.005 177.047 102.559 177.232 102.095 177.233Z" fill="white"/>
<path d="M185.203 213.522H59.9188C59.7329 213.522 59.5546 213.448 59.4231 213.316C59.2916 213.184 59.2178 213.005 59.2178 212.819C59.2178 212.633 59.2916 212.454 59.4231 212.322C59.5546 212.19 59.7329 212.116 59.9188 212.116H185.203C185.389 212.116 185.568 212.19 185.699 212.322C185.831 212.454 185.905 212.633 185.905 212.819C185.905 213.005 185.831 213.184 185.699 213.316C185.568 213.448 185.389 213.522 185.203 213.522Z" fill="#3F3D56"/>
</svg>
